<svg width="1031" height="1031" viewBox="0 0 1031 1031" fill="none" xmlns="http://www.w3.org/2000/svg">
<path d="M3.5 253.5C3.5 135.649 3.5 76.7233 40.1117 40.1117C76.7233 3.5 135.649 3.5 253.5 3.5H1027.5V777.5C1027.5 895.351 1027.5 954.277 990.888 990.888C954.277 1027.5 895.351 1027.5 777.5 1027.5H3.5V253.5Z" fill="black"/>
<path d="M3.5 253.5C3.5 135.649 3.5 76.7233 40.1117 40.1117C76.7233 3.5 135.649 3.5 253.5 3.5H1027.5V777.5C1027.5 895.351 1027.5 954.277 990.888 990.888C954.277 1027.5 895.351 1027.5 777.5 1027.5H3.5V253.5Z" stroke="#39FF14" stroke-width="7" stroke-linejoin="bevel"/>
<path d="M327 142L225 245H611L714 142H327Z" fill="#39FF14" stroke="#39FF14"/>
<path d="M806 615H417L315 718H703L806 615Z" fill="#5E7C64" stroke="#5E7C64"/>
<path d="M766.5 253.5H624.5L267.5 610.5H409.5L766.5 253.5Z" fill="white" stroke="white"/>
<path d="M291.5 657.5L742.5 206.5" stroke="#686262" stroke-width="5"/>
<path d="M293.5 658.5L290.5 655.5L332.5 613.5L334.5 611.5H340.5L325.5 626.5L296.5 655.5L293.5 658.5Z" fill="#B8B8B8" stroke="#B8B8B8"/>
<path d="M278.5 643.5L251.5 670.5L278.5 697.5L305.5 670.5L278.5 643.5Z" fill="white" stroke="white"/>
<path opacity="0.8" d="M737.5 214.5L735 212L734.5 211.5L730 216L714.5 231.5L700.5 245.5L696.5 249.5L693.5 252.5H695.5H699.5L732 220L737.5 214.5Z" fill="#B8B8B8" stroke="#B8B8B8"/>
<path d="M746.558 173.516L720.517 201.442L748.442 227.484L774.484 199.558L746.558 173.516Z" fill="white" stroke="white"/>
<path d="M515.5 405.5L488.5 432.5L515.5 459.5L542.5 432.5L515.5 405.5Z" fill="black" stroke="black"/>
<path d="M356.58 900V885.42L406.476 824.184H357.876V810.9H422.838V825.48L371.97 886.716H424.62V900H356.58ZM452.907 900V886.716H484.497V824.184H456.957V810.9H499.077V886.716H529.047V900H452.907ZM490.167 794.862C486.603 794.862 483.795 793.944 481.743 792.108C479.691 790.272 478.665 787.788 478.665 784.656C478.665 781.416 479.691 778.878 481.743 777.042C483.795 775.098 486.603 774.126 490.167 774.126C493.731 774.126 496.539 775.098 498.591 777.042C500.643 778.878 501.669 781.416 501.669 784.656C501.669 787.788 500.643 790.272 498.591 792.108C496.539 793.944 493.731 794.862 490.167 794.862ZM574.991 900L545.183 810.9H560.087L579.851 870.84C581.039 874.404 582.119 877.86 583.091 881.208C584.063 884.448 584.765 886.986 585.197 888.822C585.737 886.986 586.493 884.448 587.465 881.208C588.437 877.86 589.463 874.404 590.543 870.84L609.821 810.9H624.563L594.755 900H574.991Z" fill="white"/>
</svg>
